<!DOCTYPE svg PUBLIC "-//W3C//DTD SVG 1.1//EN" "http://www.w3.org/Graphics/SVG/1.1/DTD/svg11.dtd">

<!-- Uploaded to: SVG Repo, www.svgrepo.com, Transformed by: SVG Repo Mixer Tools -->
<svg fill="#adebff" version="1.1" id="Layer_1" xmlns="http://www.w3.org/2000/svg" xmlns:xlink="http://www.w3.org/1999/xlink" viewBox="0 0 512.001 512.001" xml:space="preserve" width="32px" height="32px" stroke="#adebff">

<g id="SVGRepo_bgCarrier" stroke-width="0"/>

<g id="SVGRepo_tracerCarrier" stroke-linecap="round" stroke-linejoin="round" stroke="#c462f9" stroke-width="18.432036"> <g> <g> <rect x="183.803" y="112.019" width="15.678" height="15.678"/> </g> </g> <g> <g> <rect x="120.044" y="152.783" width="24.04" height="15.678"/> </g> </g> <g> <g> <rect x="167.079" y="208.18" width="33.447" height="15.678"/> </g> </g> <g> <g> <rect x="152.446" y="232.22" width="31.357" height="15.678"/> </g> </g> <g> <g> <rect x="136.768" y="256.26" width="30.312" height="15.678"/> </g> </g> <g> <g> <rect x="120.044" y="280.301" width="32.402" height="15.678"/> </g> </g> <g> <g> <rect x="136.768" y="304.341" width="30.312" height="15.678"/> </g> </g> <g> <g> <rect x="152.446" y="327.336" width="31.357" height="15.678"/> </g> </g> <g> <g> <rect x="167.079" y="351.376" width="33.447" height="15.678"/> </g> </g> <g> <g> <rect x="183.803" y="376.461" width="32.402" height="15.678"/> </g> </g> <g> <g> <rect x="200.527" y="400.502" width="31.357" height="15.678"/> </g> </g> <g> <g> <rect x="216.205" y="423.497" width="31.357" height="15.678"/> </g> </g> <g> <g> <rect x="231.883" y="448.582" width="32.402" height="15.678"/> </g> </g> <g> <g> <path d="M512.001,247.902H512h-20.891l-67.137-67.136l-16.006,16.006l-80.026-80.025l-84.32,84.32 c-3.307-1.984-6.674-3.869-10.11-5.628c-3.274-1.674-6.61-3.238-9.993-4.704V99.625L191.637,78.4l-31.879,21.224v5.081H79.275 v15.678h80.482v7.317H79.275v15.678h8.362v44.779c-8.118,3.181-16.013,6.948-23.593,11.325 c-25.789,14.893-47.546,36.252-62.921,61.768L0,263.116v224.665h511.837V344.062h-36.231c-34.994,0-70.08-8.935-101.467-25.838 c-25.144-13.541-48.048-32.239-67.099-54.644h204.962V247.902z M175.437,108.021l16.201-10.785l16.201,10.786v76.807 c-2.765-0.896-5.55-1.736-8.362-2.498v-13.868h-15.678v10.358c-2.773-0.492-5.563-0.904-8.362-1.268V108.021z M103.316,143.379 h56.442v32.82c-2.62-0.113-5.244-0.189-7.872-0.189c-16.503,0-32.856,2.34-48.571,6.844V143.379z M366.705,332.029 c33.664,18.129,71.321,27.712,108.901,27.712h20.552v112.362H15.678v-204.6c13.936-22.437,33.332-41.233,56.207-54.444 c24.21-13.981,51.872-21.371,80.001-21.371c26.082,0,51.838,6.123,74.484,17.708c22.119,11.316,41.437,27.891,55.866,47.933 C304.703,288.538,333.911,314.369,366.705,332.029z M294.761,247.902c-10.494-14.516-23.324-27.358-37.82-37.982l41.454-41.455 h29.645v-15.678h-13.966l13.869-13.869l80.026,80.026l16.005-16.006l44.964,44.965H294.761z"/> </g> </g> <g> <g> <rect x="352.085" y="280.301" width="56.442" height="15.678"/> </g> </g> <g> <g> <rect x="424.205" y="280.301" width="15.678" height="15.678"/> </g> </g> <g> <g> <rect x="399.12" y="304.341" width="80.482" height="15.678"/> </g> </g> <g> <g> <rect x="216.205" y="24.22" width="175.598" height="15.678"/> </g> </g> <g> <g> <rect x="344.768" y="55.577" width="118.111" height="15.678"/> </g> </g> <g> <g> <rect x="279.964" y="55.577" width="39.719" height="15.678"/> </g> </g> <g> <g> <path d="M319.94,360.068c-21.974,0-39.849,17.876-39.849,39.849c0,19.011,13.386,34.946,31.226,38.898v25.448h15.678v-25.136 c18.618-3.342,32.794-19.647,32.794-39.211C359.789,377.944,341.913,360.068,319.94,360.068z M326.995,423.033V407.82h-15.678 v14.671c-9.081-3.481-15.548-12.285-15.548-22.575c0-13.328,10.843-24.171,24.171-24.171s24.171,10.843,24.171,24.171 C344.111,410.79,336.891,420.008,326.995,423.033z"/> </g> </g> <g> <g> <path d="M423.972,360.068c-21.973,0-39.849,17.877-39.849,39.849c0,19.552,14.16,35.849,32.762,39.204v25.142h15.678v-25.44 c17.857-3.94,31.259-19.883,31.259-38.906C463.821,377.944,445.945,360.068,423.972,360.068z M432.563,422.505v-14.683h-15.678 v15.204c-9.879-3.036-17.083-12.246-17.083-23.109c0-13.328,10.843-24.171,24.171-24.171s24.171,10.843,24.171,24.171 C448.143,410.219,441.66,419.032,432.563,422.505z"/> </g> </g> <g> <g> <path d="M95.869,360.067c-21.973,0-39.849,17.877-39.849,39.849c0,19.152,13.582,35.187,31.618,38.99v25.357h15.678v-25.206 c18.424-3.498,32.402-19.714,32.402-39.141C135.718,377.943,117.842,360.067,95.869,360.067z M103.316,422.908v-15.087H87.638 v14.821c-9.287-3.374-15.94-12.288-15.94-22.725c0-13.328,10.843-24.171,24.171-24.171s24.171,10.843,24.171,24.171 C120.04,410.645,113.01,419.76,103.316,422.908z"/> </g> </g> <g> <g> <rect x="23.879" y="55.577" width="63.759" height="15.678"/> </g> </g> <g> <g> <rect x="87.642" y="31.537" width="56.442" height="15.678"/> </g> </g> </g>

<g id="SVGRepo_iconCarrier"> <g> <g> <rect x="183.803" y="112.019" width="15.678" height="15.678"/> </g> </g> <g> <g> <rect x="120.044" y="152.783" width="24.04" height="15.678"/> </g> </g> <g> <g> <rect x="167.079" y="208.18" width="33.447" height="15.678"/> </g> </g> <g> <g> <rect x="152.446" y="232.22" width="31.357" height="15.678"/> </g> </g> <g> <g> <rect x="136.768" y="256.26" width="30.312" height="15.678"/> </g> </g> <g> <g> <rect x="120.044" y="280.301" width="32.402" height="15.678"/> </g> </g> <g> <g> <rect x="136.768" y="304.341" width="30.312" height="15.678"/> </g> </g> <g> <g> <rect x="152.446" y="327.336" width="31.357" height="15.678"/> </g> </g> <g> <g> <rect x="167.079" y="351.376" width="33.447" height="15.678"/> </g> </g> <g> <g> <rect x="183.803" y="376.461" width="32.402" height="15.678"/> </g> </g> <g> <g> <rect x="200.527" y="400.502" width="31.357" height="15.678"/> </g> </g> <g> <g> <rect x="216.205" y="423.497" width="31.357" height="15.678"/> </g> </g> <g> <g> <rect x="231.883" y="448.582" width="32.402" height="15.678"/> </g> </g> <g> <g> <path d="M512.001,247.902H512h-20.891l-67.137-67.136l-16.006,16.006l-80.026-80.025l-84.32,84.32 c-3.307-1.984-6.674-3.869-10.11-5.628c-3.274-1.674-6.61-3.238-9.993-4.704V99.625L191.637,78.4l-31.879,21.224v5.081H79.275 v15.678h80.482v7.317H79.275v15.678h8.362v44.779c-8.118,3.181-16.013,6.948-23.593,11.325 c-25.789,14.893-47.546,36.252-62.921,61.768L0,263.116v224.665h511.837V344.062h-36.231c-34.994,0-70.08-8.935-101.467-25.838 c-25.144-13.541-48.048-32.239-67.099-54.644h204.962V247.902z M175.437,108.021l16.201-10.785l16.201,10.786v76.807 c-2.765-0.896-5.55-1.736-8.362-2.498v-13.868h-15.678v10.358c-2.773-0.492-5.563-0.904-8.362-1.268V108.021z M103.316,143.379 h56.442v32.82c-2.62-0.113-5.244-0.189-7.872-0.189c-16.503,0-32.856,2.34-48.571,6.844V143.379z M366.705,332.029 c33.664,18.129,71.321,27.712,108.901,27.712h20.552v112.362H15.678v-204.6c13.936-22.437,33.332-41.233,56.207-54.444 c24.21-13.981,51.872-21.371,80.001-21.371c26.082,0,51.838,6.123,74.484,17.708c22.119,11.316,41.437,27.891,55.866,47.933 C304.703,288.538,333.911,314.369,366.705,332.029z M294.761,247.902c-10.494-14.516-23.324-27.358-37.82-37.982l41.454-41.455 h29.645v-15.678h-13.966l13.869-13.869l80.026,80.026l16.005-16.006l44.964,44.965H294.761z"/> </g> </g> <g> <g> <rect x="352.085" y="280.301" width="56.442" height="15.678"/> </g> </g> <g> <g> <rect x="424.205" y="280.301" width="15.678" height="15.678"/> </g> </g> <g> <g> <rect x="399.12" y="304.341" width="80.482" height="15.678"/> </g> </g> <g> <g> <rect x="216.205" y="24.22" width="175.598" height="15.678"/> </g> </g> <g> <g> <rect x="344.768" y="55.577" width="118.111" height="15.678"/> </g> </g> <g> <g> <rect x="279.964" y="55.577" width="39.719" height="15.678"/> </g> </g> <g> <g> <path d="M319.94,360.068c-21.974,0-39.849,17.876-39.849,39.849c0,19.011,13.386,34.946,31.226,38.898v25.448h15.678v-25.136 c18.618-3.342,32.794-19.647,32.794-39.211C359.789,377.944,341.913,360.068,319.94,360.068z M326.995,423.033V407.82h-15.678 v14.671c-9.081-3.481-15.548-12.285-15.548-22.575c0-13.328,10.843-24.171,24.171-24.171s24.171,10.843,24.171,24.171 C344.111,410.79,336.891,420.008,326.995,423.033z"/> </g> </g> <g> <g> <path d="M423.972,360.068c-21.973,0-39.849,17.877-39.849,39.849c0,19.552,14.16,35.849,32.762,39.204v25.142h15.678v-25.44 c17.857-3.94,31.259-19.883,31.259-38.906C463.821,377.944,445.945,360.068,423.972,360.068z M432.563,422.505v-14.683h-15.678 v15.204c-9.879-3.036-17.083-12.246-17.083-23.109c0-13.328,10.843-24.171,24.171-24.171s24.171,10.843,24.171,24.171 C448.143,410.219,441.66,419.032,432.563,422.505z"/> </g> </g> <g> <g> <path d="M95.869,360.067c-21.973,0-39.849,17.877-39.849,39.849c0,19.152,13.582,35.187,31.618,38.99v25.357h15.678v-25.206 c18.424-3.498,32.402-19.714,32.402-39.141C135.718,377.943,117.842,360.067,95.869,360.067z M103.316,422.908v-15.087H87.638 v14.821c-9.287-3.374-15.94-12.288-15.94-22.725c0-13.328,10.843-24.171,24.171-24.171s24.171,10.843,24.171,24.171 C120.04,410.645,113.01,419.76,103.316,422.908z"/> </g> </g> <g> <g> <rect x="23.879" y="55.577" width="63.759" height="15.678"/> </g> </g> <g> <g> <rect x="87.642" y="31.537" width="56.442" height="15.678"/> </g> </g> </g>

</svg>
